HIERARCHY
ROOT Pelvis
{
	OFFSET 0.000000 0.000000 0.000000
	CHANNELS 6 Xposition Yposition Zposition Xrotation Yrotation Zrotation
	JOINT LeftUpLeg_virtual
	{
		OFFSET 0.000000 0.000000 0.000000
		CHANNELS 3 Xrotation Yrotation Zrotation
		JOINT LeftUpLeg
		{
			OFFSET 18.735201 -5.666702 -4.541200
			CHANNELS 3 Xrotation Yrotation Zrotation
			JOINT LeftLeg
			{
				OFFSET -0.021200 -31.938179 0.493100
				CHANNELS 3 Xrotation Yrotation Zrotation
				JOINT LeftFoot
				{
					OFFSET 0.021200 -31.938179 -4.336299
					CHANNELS 3 Xrotation Yrotation Zrotation
					JOINT LeftToeBase
					{
						OFFSET 0.943001 -26.722000 15.023500
						CHANNELS 3 Xrotation Yrotation Zrotation
						End Site
						{
							OFFSET 0 0 0
						}
					}
				}
			}
		}
	}
	JOINT RightUpLeg_virtual
	{
		OFFSET 0.000000 0.000000 0.000000
		CHANNELS 3 Xrotation Yrotation Zrotation
		JOINT RightUpLeg
		{
			OFFSET -18.735201 -5.666702 -4.541200
			CHANNELS 3 Xrotation Yrotation Zrotation
			JOINT RightLeg
			{
				OFFSET 0.018946 -31.938133 0.493100
				CHANNELS 3 Xrotation Yrotation Zrotation
				JOINT RightFoot
				{
					OFFSET -0.018946 -31.938126 -4.336299
					CHANNELS 3 Xrotation Yrotation Zrotation
					JOINT RightToeBase
					{
						OFFSET -0.943001 -26.722004 15.023500
						CHANNELS 3 Xrotation Yrotation Zrotation
						End Site
						{
							OFFSET 0 0 0
						}
					}
				}
			}
		}
	}
	JOINT Hips_virtual
	{
		OFFSET 0.000000 0.000000 0.000000
		CHANNELS 3 Xrotation Yrotation Zrotation
		JOINT Hips
		{
			OFFSET -0.000000 -0.000000 -0.000000
			CHANNELS 3 Xrotation Yrotation Zrotation
			JOINT Spine
			{
				OFFSET 0.000000 10.199997 -0.299500
				CHANNELS 3 Xrotation Yrotation Zrotation
				JOINT Spine1
				{
					OFFSET 0.000000 11.900002 -1.516600
					CHANNELS 3 Xrotation Yrotation Zrotation
					JOINT Spine2
					{
						OFFSET 0.000000 13.600006 -2.842500
						CHANNELS 3 Xrotation Yrotation Zrotation
						JOINT Neck_virtual
						{
							OFFSET 0.000000 0.000000 0.000000
							CHANNELS 3 Xrotation Yrotation Zrotation
							JOINT Neck
							{
								OFFSET 0.000000 9.624100 -2.890100
								CHANNELS 3 Xrotation Yrotation Zrotation
								JOINT Head
								{
									OFFSET 0.000000 14.068802 -1.351900
									CHANNELS 3 Xrotation Yrotation Zrotation
									End Site
									{
										OFFSET 0 0 0
									}
								}
							}
						}
						JOINT LeftShoulder_virtual
						{
							OFFSET 0.000000 0.000000 0.000000
							CHANNELS 3 Xrotation Yrotation Zrotation
							JOINT LeftShoulder
							{
								OFFSET 15.263000 10.923401 -0.547700
								CHANNELS 3 Xrotation Yrotation Zrotation
								JOINT LeftArm
								{
									OFFSET 25.438599 -2.830597 -13.032500
									CHANNELS 3 Xrotation Yrotation Zrotation
									JOINT LeftForeArm
									{
										OFFSET 29.960503 0.000000 0.000000
										CHANNELS 3 Xrotation Yrotation Zrotation
										JOINT LeftHand
										{
											OFFSET 27.849251 0.000000 0.000000
											CHANNELS 3 Xrotation Yrotation Zrotation
											End Site
											{
												OFFSET 0 0 0
											}
										}
									}
								}
							}
						}
						JOINT RightShoulder_virtual
						{
							OFFSET 0.000000 0.000000 0.000000
							CHANNELS 3 Xrotation Yrotation Zrotation
							JOINT RightShoulder
							{
								OFFSET -15.263000 10.923401 -0.547700
								CHANNELS 3 Xrotation Yrotation Zrotation
								JOINT RightArm
								{
									OFFSET -25.438599 -2.830597 -13.032500
									CHANNELS 3 Xrotation Yrotation Zrotation
									JOINT RightForeArm
									{
										OFFSET -29.960503 0.000000 0.000000
										CHANNELS 3 Xrotation Yrotation Zrotation
										JOINT RightHand
										{
											OFFSET -27.849251 0.000000 0.000000
											CHANNELS 3 Xrotation Yrotation Zrotation
											End Site
											{
												OFFSET 0 0 0
											}
										}
									}
								}
							}
						}
					}
				}
			}
		}
	}
}
MOTION
Frames: 12
Frame Time: 0.03333333
1.113741 56.733345 -15.585766 0.000000 0.000000 0.000000 32.732572 -4.070774 2.466722 -119.250896 -13.143404 24.844729 121.270419 5.260372 -0.376943 -5.235621 -21.634431 -7.017064 0.000000 0.000000 0.000000 32.732572 -4.070774 2.466722 -114.794388 -13.258762 -13.944467 127.501354 8.127047 -2.485029 -18.150640 2.881476 -18.386043 0.000000 0.000000 0.000000 32.732572 -4.070774 2.466722 -0.000002 0.000000 0.000000 11.783522 0.801903 -2.234255 23.587000 0.789779 -4.769932 0.000000 0.000000 0.000000 23.586993 0.789779 -4.769936 -5.867801 -0.353405 0.138040 0.000000 0.000000 0.000000 23.586993 0.789779 -4.769936 1.031242 -3.894730 -0.100350 -14.880877 -30.286609 -15.640396 -170.230280 -79.136354 -171.804406 0.000000 0.000000 0.000000 23.586993 0.789779 -4.769936 6.339582 30.022247 7.914820 -33.565110 7.668065 20.375904 13.935033 70.606288 -24.882883 0.000000 0.000000 0.000000 
0.904985 53.547920 -16.056686 0.000000 0.000000 0.000000 35.859569 -0.327330 2.336385 -99.192474 -17.940769 35.395546 125.622861 -1.904371 -1.012101 -29.494440 -15.405418 -23.706079 0.000000 0.000000 0.000000 35.859569 -0.327330 2.336385 -124.553800 -8.666091 -11.784402 132.977554 3.943862 -1.315938 -14.745407 1.211500 -14.317538 0.000000 0.000000 0.000000 35.859569 -0.327330 2.336385 0.000001 0.000000 0.000000 11.085143 0.415177 -2.266776 22.176796 0.436129 -4.312041 0.000000 0.000000 0.000000 22.176808 0.436130 -4.312045 -4.852608 -0.432874 -0.019647 0.000000 0.000000 0.000000 22.176808 0.436130 -4.312045 0.640950 -3.294367 -0.953792 -15.835078 -34.689957 -16.373893 -175.418861 -77.914700 -177.240117 0.000000 0.000000 0.000000 22.176808 0.436130 -4.312045 5.833065 29.728012 10.839903 -38.904351 17.802033 21.911284 10.180173 60.700369 -18.967917 0.000000 0.000000 0.000000 
1.036794 50.442551 -16.341141 0.000000 0.000000 0.000000 38.522533 2.545703 1.885393 -89.836474 -19.312725 42.051023 125.933962 -7.081291 -1.560213 -38.362181 -12.245599 -30.129850 0.000000 0.000000 0.000000 38.522533 2.545703 1.885393 -133.457812 -4.698286 -9.475947 138.398320 1.470131 -0.714955 -12.124581 -0.119238 -10.223709 0.000000 0.000000 0.000000 38.522533 2.545703 1.885393 0.000000 0.000000 0.000000 9.882806 0.363249 -1.962101 19.767520 0.228246 -3.621572 0.000000 0.000000 0.000000 19.767508 0.228246 -3.621572 -3.855638 -0.494879 -0.169908 0.000000 0.000000 0.000000 19.767508 0.228246 -3.621572 0.020287 -2.572768 -2.855806 -17.018373 -39.190492 -20.988102 -179.017113 -82.074914 178.026736 0.000000 0.000000 0.000000 19.767508 0.228246 -3.621572 5.824589 28.867784 13.884146 -39.853105 20.536063 22.693068 6.574749 55.607705 -13.152806 0.000000 0.000000 0.000000 
1.123718 48.428963 -16.615753 0.000000 0.000000 0.000000 40.586620 4.700095 1.398566 -96.442285 -22.719243 41.299343 128.613555 -6.746126 -1.634497 -36.379001 -15.568359 -30.382587 0.000000 0.000000 0.000000 40.586620 4.700095 1.398566 -139.301052 -2.737609 -9.212551 142.122740 0.174885 -0.573945 -12.012792 -1.230303 -8.303399 0.000000 0.000000 0.000000 40.586620 4.700095 1.398566 0.000002 0.000000 0.000000 8.547767 0.321262 -1.480788 17.095393 0.064673 -2.736922 0.000000 0.000000 0.000000 17.095412 0.064674 -2.736922 -2.996345 -0.537381 -0.297314 0.000000 0.000000 0.000000 17.095412 0.064674 -2.736922 -0.567128 -1.709444 -5.503914 -18.354337 -41.817218 -27.529776 178.363615 -88.744306 174.476458 0.000000 0.000000 0.000000 17.095412 0.064674 -2.736922 6.177822 28.203600 16.491190 -38.931487 21.004809 21.886962 4.302017 53.106155 -8.182228 0.000000 0.000000 0.000000 
1.155206 47.144043 -16.785995 0.000000 0.000000 0.000000 41.922707 5.988102 1.029422 -99.789822 -24.831552 41.263519 130.054643 -5.650904 -1.663218 -35.746236 -18.388952 -31.654669 0.000000 0.000000 0.000000 41.922707 5.988102 1.029422 -142.364939 -2.091961 -10.217038 144.704716 -0.587197 -0.591677 -13.478605 -1.892062 -7.861712 0.000000 0.000000 0.000000 41.922707 5.988102 1.029422 0.000001 0.000000 0.000000 7.518105 0.389054 -1.122695 15.035803 0.007293 -2.112021 0.000000 0.000000 0.000000 15.035804 0.007296 -2.112024 -2.394187 -0.561597 -0.385515 0.000000 0.000000 0.000000 15.035804 0.007296 -2.112024 -1.015680 -1.088654 -7.719854 -19.682846 -42.508686 -33.424142 12.679970 -85.463043 8.660688 0.000000 0.000000 0.000000 15.035804 0.007296 -2.112024 6.610504 27.783782 18.355802 -38.503166 22.500062 21.084063 3.135943 48.801647 -4.266653 0.000000 0.000000 0.000000 
1.173466 46.800209 -16.857361 0.000000 0.000000 0.000000 42.396623 6.368217 0.843083 -101.209907 -25.353375 41.510331 130.484808 -5.093856 -1.646857 -35.394611 -19.899210 -31.790559 0.000000 0.000000 0.000000 42.396623 6.368217 0.843083 -140.974380 -1.658587 -10.801421 145.872350 -0.326670 -0.301887 -17.797228 -1.834123 -7.666406 0.000000 0.000000 0.000000 42.396623 6.368217 0.843083 0.000003 0.000001 -0.000000 7.149973 0.558413 -0.908619 14.301012 0.134546 -1.811517 0.000000 0.000000 0.000000 14.301013 0.134549 -1.811518 -2.168410 -0.569529 -0.418216 0.000000 0.000000 0.000000 14.301013 0.134549 -1.811518 -1.180476 -0.757295 -8.687520 -20.068530 -41.893030 -35.976956 15.277629 -83.419682 11.324872 0.000000 0.000000 0.000000 14.301013 0.134549 -1.811518 6.868157 27.557424 18.918762 -38.383775 22.922362 20.627904 2.112923 47.130870 -2.168530 0.000000 0.000000 0.000000 
1.173466 46.800209 -16.857361 0.000000 0.000000 0.000000 42.396623 6.368217 0.843083 -101.209907 -25.353375 41.510331 130.484808 -5.093856 -1.646857 -35.394611 -19.899210 -31.790559 0.000000 0.000000 0.000000 42.396623 6.368217 0.843083 -140.974380 -1.658587 -10.801421 145.872350 -0.326670 -0.301887 -17.797228 -1.834123 -7.666406 0.000000 0.000000 0.000000 42.396623 6.368217 0.843083 0.000003 0.000001 -0.000000 7.149973 0.558413 -0.908619 14.301012 0.134546 -1.811517 0.000000 0.000000 0.000000 14.301013 0.134549 -1.811518 -2.168410 -0.569529 -0.418216 0.000000 0.000000 0.000000 14.301013 0.134549 -1.811518 -1.180476 -0.757295 -8.687520 -20.068530 -41.893030 -35.976956 15.277629 -83.419682 11.324872 0.000000 0.000000 0.000000 14.301013 0.134549 -1.811518 6.868157 27.557424 18.918762 -38.383775 22.922362 20.627904 2.112923 47.130870 -2.168530 0.000000 0.000000 0.000000 
1.173466 46.800209 -16.857361 0.000000 0.000000 0.000000 42.396623 6.368217 0.843083 -101.209907 -25.353375 41.510331 130.484808 -5.093856 -1.646857 -35.394611 -19.899210 -31.790559 0.000000 0.000000 0.000000 42.396623 6.368217 0.843083 -140.974380 -1.658587 -10.801421 145.872350 -0.326670 -0.301887 -17.797228 -1.834123 -7.666406 0.000000 0.000000 0.000000 42.396623 6.368217 0.843083 0.000003 0.000001 -0.000000 7.149973 0.558413 -0.908619 14.301012 0.134546 -1.811517 0.000000 0.000000 0.000000 14.301013 0.134549 -1.811518 -2.168410 -0.569529 -0.418216 0.000000 0.000000 0.000000 14.301013 0.134549 -1.811518 -1.180476 -0.757295 -8.687520 -20.068530 -41.893030 -35.976956 15.277629 -83.419682 11.324872 0.000000 0.000000 0.000000 14.301013 0.134549 -1.811518 6.868157 27.557424 18.918762 -38.383775 22.922362 20.627904 2.112923 47.130870 -2.168530 0.000000 0.000000 0.000000 
1.173466 46.800209 -16.857361 0.000000 0.000000 0.000000 42.396623 6.368217 0.843083 -101.209907 -25.353375 41.510331 130.484808 -5.093856 -1.646857 -35.394611 -19.899210 -31.790559 0.000000 0.000000 0.000000 42.396623 6.368217 0.843083 -140.974380 -1.658587 -10.801421 145.872350 -0.326670 -0.301887 -17.797228 -1.834123 -7.666406 0.000000 0.000000 0.000000 42.396623 6.368217 0.843083 0.000003 0.000001 -0.000000 7.149973 0.558413 -0.908619 14.301012 0.134546 -1.811517 0.000000 0.000000 0.000000 14.301013 0.134549 -1.811518 -2.168410 -0.569529 -0.418216 0.000000 0.000000 0.000000 14.301013 0.134549 -1.811518 -1.180476 -0.757295 -8.687520 -20.068530 -41.893030 -35.976956 15.277629 -83.419682 11.324872 0.000000 0.000000 0.000000 14.301013 0.134549 -1.811518 6.868157 27.557424 18.918762 -38.383775 22.922362 20.627904 2.112923 47.130870 -2.168530 0.000000 0.000000 0.000000 
1.173466 46.800209 -16.857361 0.000000 0.000000 0.000000 42.396623 6.368217 0.843083 -101.209907 -25.353375 41.510331 130.484808 -5.093856 -1.646857 -35.394611 -19.899210 -31.790559 0.000000 0.000000 0.000000 42.396623 6.368217 0.843083 -140.974380 -1.658587 -10.801421 145.872350 -0.326670 -0.301887 -17.797228 -1.834123 -7.666406 0.000000 0.000000 0.000000 42.396623 6.368217 0.843083 0.000003 0.000001 -0.000000 7.149973 0.558413 -0.908619 14.301012 0.134546 -1.811517 0.000000 0.000000 0.000000 14.301013 0.134549 -1.811518 -2.168410 -0.569529 -0.418216 0.000000 0.000000 0.000000 14.301013 0.134549 -1.811518 -1.180476 -0.757295 -8.687520 -20.068530 -41.893030 -35.976956 15.277629 -83.419682 11.324872 0.000000 0.000000 0.000000 14.301013 0.134549 -1.811518 6.868157 27.557424 18.918762 -38.383775 22.922362 20.627904 2.112923 47.130870 -2.168530 0.000000 0.000000 0.000000 
1.173466 46.800209 -16.857361 0.000000 0.000000 0.000000 42.396623 6.368217 0.843083 -101.209907 -25.353375 41.510331 130.484808 -5.093856 -1.646857 -35.394611 -19.899210 -31.790559 0.000000 0.000000 0.000000 42.396623 6.368217 0.843083 -140.974380 -1.658587 -10.801421 145.872350 -0.326670 -0.301887 -17.797228 -1.834123 -7.666406 0.000000 0.000000 0.000000 42.396623 6.368217 0.843083 0.000003 0.000001 -0.000000 7.149973 0.558413 -0.908619 14.301012 0.134546 -1.811517 0.000000 0.000000 0.000000 14.301013 0.134549 -1.811518 -2.168410 -0.569529 -0.418216 0.000000 0.000000 0.000000 14.301013 0.134549 -1.811518 -1.180476 -0.757295 -8.687520 -20.068530 -41.893030 -35.976956 15.277629 -83.419682 11.324872 0.000000 0.000000 0.000000 14.301013 0.134549 -1.811518 6.868157 27.557424 18.918762 -38.383775 22.922362 20.627904 2.112923 47.130870 -2.168530 0.000000 0.000000 0.000000 
1.173466 46.800209 -16.857361 0.000000 0.000000 0.000000 42.396623 6.368217 0.843083 -101.209907 -25.353375 41.510331 130.484808 -5.093856 -1.646857 -35.394611 -19.899210 -31.790559 0.000000 0.000000 0.000000 42.396623 6.368217 0.843083 -140.974380 -1.658587 -10.801421 145.872350 -0.326670 -0.301887 -17.797228 -1.834123 -7.666406 0.000000 0.000000 0.000000 42.396623 6.368217 0.843083 0.000003 0.000001 -0.000000 7.149973 0.558413 -0.908619 14.301012 0.134546 -1.811517 0.000000 0.000000 0.000000 14.301013 0.134549 -1.811518 -2.168410 -0.569529 -0.418216 0.000000 0.000000 0.000000 14.301013 0.134549 -1.811518 -1.180476 -0.757295 -8.687520 -20.068530 -41.893030 -35.976956 15.277629 -83.419682 11.324872 0.000000 0.000000 0.000000 14.301013 0.134549 -1.811518 6.868157 27.557424 18.918762 -38.383775 22.922362 20.627904 2.112923 47.130870 -2.168530 0.000000 0.000000 0.000000 
